<?xml version="1.0" encoding="UTF-8"?>
<!DOCTYPE svg PUBLIC "-//W3C//DTD SVG 1.1//EN" "http://www.w3.org/Graphics/SVG/1.1/DTD/svg11.dtd">
<!-- Creator: CorelDRAW X5 -->
<svg xmlns="http://www.w3.org/2000/svg" xml:space="preserve" width="0.25in" height="0.25in" shape-rendering="geometricPrecision" text-rendering="geometricPrecision" image-rendering="optimizeQuality" fill-rule="evenodd" clip-rule="evenodd"
viewBox="0 0 0.25 0.25"
 xmlns:xlink="http://www.w3.org/1999/xlink">
 <g id="Layer_x0020_1">
  <metadata id="CorelCorpID_0Corel-Layer"/>
  <g id="_303614120">
   <path id="_313969736" fill="none" stroke="#B7B7B7" stroke-width="0.00833465" d="M0.213701 0.205921c0.044689,-0.0489843 0.0412047,-0.124929 -0.00777953,-0.169622 -0.0489882,-0.044689 -0.124933,-0.0412047 -0.169622,0.00777953 -0.0446929,0.0489882 -0.0412087,0.124933 0.00777953,0.169622 0.0489843,0.0446929 0.124929,0.0412087 0.169622,-0.00777953z"/>
   <g id="_255824728">
    <path id="_259750576" fill="#B7B7B7" fill-rule="nonzero" d="M0.0575472 0.130386l0 -0.0107717c0.0838071,0 0.0300512,0 0.0745394,0l0.0603622 0 0 0.0107717 -0.0603622 0c-0.052685,0 0.0182874,0 -0.0745394,0z"/>
    <path id="_259750576_0" fill="#B7B7B7" fill-rule="nonzero" d="M0.119614 0.0575472l0.0107677 0c0,0.0838071 0,0.0300512 0,0.0745394l0 0.0603622 -0.0107677 0 0 -0.0603622c0,-0.052685 0,0.0182874 0,-0.0745394z"/>
   </g>
  </g>
 </g>
</svg>
