<?xml version="1.0" encoding="UTF-8" standalone="no"?>
<svg width="40px" height="40px" viewBox="0 0 40 40" version="1.1" xmlns="http://www.w3.org/2000/svg" xmlns:xlink="http://www.w3.org/1999/xlink">
    <!-- Generator: Sketch 3.6.1 (26313) - http://www.bohemiancoding.com/sketch -->
    <title>clipboard_active</title>
    <desc>Created with Sketch.</desc>
    <defs></defs>
    <g id="Page-1" stroke="none" stroke-width="1" fill="none" fill-rule="evenodd">
        <g id="clipboard_active" fill="#000000">
            <g id="paste_filled" transform="translate(10.000000, 8.000000)">
                <g id="Слой_1">
                    <path d="M12.4090909,5 L5.72727273,5 C5.46381818,5 5.25,4.776 5.25,4.5 L5.25,0.5 C5.25,0.224 5.46381818,0 5.72727273,0 L12.4090909,0 C12.6730227,0 12.8863636,0.224 12.8863636,0.5 L12.8863636,4.5 C12.8863636,4.776 12.6730227,5 12.4090909,5 L12.4090909,5 Z" id="Shape"></path>
                    <path d="M20.5227273,7.5 L7.15909091,7.5 C6.89563636,7.5 6.68181818,7.724 6.68181818,8 L6.68181818,24.5 C6.68181818,24.7765 6.89563636,25 7.15909091,25 L20.5227273,25 C20.7866591,25 21,24.7765 21,24.5 L21,8 C21,7.724 20.7866591,7.5 20.5227273,7.5 L20.5227273,7.5 Z M15.75,21.5 L10.0227273,21.5 C9.75927273,21.5 9.54545455,21.2765 9.54545455,21 C9.54545455,20.7235 9.75927273,20.5 10.0227273,20.5 L15.75,20.5 C16.0139318,20.5 16.2272727,20.7235 16.2272727,21 C16.2272727,21.2765 16.0139318,21.5 15.75,21.5 L15.75,21.5 Z M18.1363636,18.5 L10.0227273,18.5 C9.75927273,18.5 9.54545455,18.2765 9.54545455,18 C9.54545455,17.7235 9.75927273,17.5 10.0227273,17.5 L18.1363636,17.5 C18.4002955,17.5 18.6136364,17.7235 18.6136364,18 C18.6136364,18.2765 18.4002955,18.5 18.1363636,18.5 L18.1363636,18.5 Z M9.54545455,15 C9.54545455,14.7235 9.75927273,14.5 10.0227273,14.5 L15.75,14.5 C16.0139318,14.5 16.2272727,14.7235 16.2272727,15 C16.2272727,15.2765 16.0139318,15.5 15.75,15.5 L10.0227273,15.5 C9.75927273,15.5 9.54545455,15.2765 9.54545455,15 L9.54545455,15 Z M18.1363636,12.5 L10.0227273,12.5 C9.75927273,12.5 9.54545455,12.276 9.54545455,12 C9.54545455,11.724 9.75927273,11.5 10.0227273,11.5 L18.1363636,11.5 C18.4002955,11.5 18.6136364,11.724 18.6136364,12 C18.6136364,12.276 18.4002955,12.5 18.1363636,12.5 L18.1363636,12.5 Z" id="Shape"></path>
                    <path d="M5.72727273,20 L2.86363636,20 L2.86363636,4 L4.29545455,4 L4.29545455,1 L1.38409091,1 C0.646704545,1 0,1.6775 0,2.45 L0,21.5 C0,22.313 0.633818182,23 1.38409091,23 L5.72727273,23 L5.72727273,20 L5.72727273,20 Z" id="Shape"></path>
                    <path d="M15.2727273,6.5 L18.1363636,6.5 L18.1363636,2.45 C18.1363636,1.6775 17.4896591,1 16.7522727,1 L13.8409091,1 L13.8409091,4 L15.2727273,4 L15.2727273,6.5 L15.2727273,6.5 Z" id="Shape"></path>
                </g>
            </g>
        </g>
    </g>
</svg>