<?xml version="1.0" encoding="UTF-8" standalone="no"?>
<svg width="40px" height="40px" viewBox="0 0 40 40" version="1.1" xmlns="http://www.w3.org/2000/svg" xmlns:xlink="http://www.w3.org/1999/xlink" xmlns:sketch="http://www.bohemiancoding.com/sketch/ns">
    <!-- Generator: Sketch 3.4 (15575) - http://www.bohemiancoding.com/sketch -->
    <title>color_picker_activ</title>
    <desc>Created with Sketch.</desc>
    <defs></defs>
    <g id="Page-1" stroke="none" stroke-width="1" fill="none" fill-rule="evenodd" sketch:type="MSPage">
        <g id="color_picker_activ" sketch:type="MSArtboardGroup" fill="#000000">
            <g id="Shape-+-Shape-+-Shape" sketch:type="MSLayerGroup" transform="translate(8.000000, 8.000000)">
                <path d="M17.388,12.2930625 C17.0905,12.2930625 16.811,12.1775625 16.6005,11.9670625 L11.8255,7.19206253 C11.3915,6.75806253 11.3915,6.05156253 11.8255,5.61756253 L13.128,4.31556253 C13.549,3.89456253 14.2825,3.89506253 14.703,4.31556253 L19.4775,9.09006253 C19.9115,9.52506253 19.9115,10.2315625 19.4775,10.6655625 L18.1755,11.9670625 C17.9655,12.1775625 17.6855,12.2930625 17.388,12.2930625 L17.388,12.2930625 Z" id="Shape" sketch:type="MSShapeGroup"></path>
                <path d="M22.679,0.954000037 C21.408,-0.317999963 19.338,-0.318499963 18.0635,0.955500037 C18.026,0.993500037 16.544,2.47600004 15.5,3.51950004 L20.1135,8.13300004 L22.6795,5.56750004 C23.951,4.29600004 23.951,2.22650004 22.679,0.954000037 L22.679,0.954000037 Z" id="Shape" sketch:type="MSShapeGroup"></path>
                <path d="M11.508125,8.5 C9.198125,10.81 3.862125,16.1455 3.185125,16.8235 C1.877125,18.131 1.673625,18.7435 1.529125,19.466 C1.432625,19.9475 1.341625,20.4025 0.146625,21.598 C-0.048875,21.7935 -0.048875,22.1095 0.146625,22.305 L1.448625,23.607 C1.546125,23.7045 1.674125,23.7535 1.802125,23.7535 C1.930125,23.7535 2.058125,23.7045 2.155625,23.607 C3.350625,22.412 3.805625,22.321 4.287125,22.2245 C5.009125,22.08 5.621625,21.8765 6.930125,20.568 L15.253125,12.245 L11.508125,8.5 L11.508125,8.5 Z" id="Shape" sketch:type="MSShapeGroup"></path>
            </g>
        </g>
    </g>
</svg>