<?xml version="1.0" encoding="UTF-8" standalone="no"?>
<svg width="40px" height="40px" viewBox="0 0 40 40" version="1.1" xmlns="http://www.w3.org/2000/svg" xmlns:xlink="http://www.w3.org/1999/xlink" xmlns:sketch="http://www.bohemiancoding.com/sketch/ns">
    <!-- Generator: Sketch 3.4 (15575) - http://www.bohemiancoding.com/sketch -->
    <title>delete_link_activ</title>
    <desc>Created with Sketch.</desc>
    <defs></defs>
    <g id="Page-1" stroke="none" stroke-width="1" fill="none" fill-rule="evenodd" sketch:type="MSPage">
        <g id="delete_link_activ" sketch:type="MSArtboardGroup" fill="#000000">
            <g id="Group" sketch:type="MSLayerGroup" transform="translate(8.000000, 8.000000)">
                <path d="M20,15 C17.243,15 15,17.243 15,20 C15,22.757 17.243,25 20,25 C22.757,25 25,22.757 25,20 C25,17.243 22.757,15 20,15 L20,15 Z M22.5,20.5 L20.5,20.5 L20.5,22.5 L19.5,22.5 L19.5,20.5 L17.5,20.5 L17.5,19.5 L19.5,19.5 L19.5,17.5 L20.5,17.5 L20.5,19.5 L22.5,19.5 L22.5,20.5 L22.5,20.5 Z" id="Shape" sketch:type="MSShapeGroup"></path>
                <path d="M7.99989772,18 C7.74389191,18 7.48788609,17.9024989 7.29288166,17.7069967 C6.90237278,17.3164922 6.90237278,16.683485 7.29288166,16.2929806 L16.2930862,7.29287833 C16.6835951,6.90237389 17.3166095,6.90237389 17.7071183,7.29287833 C18.0976272,7.68338277 18.0976272,8.31638996 17.7071183,8.7068944 L8.70691379,17.7069967 C8.51190936,17.9024989 8.25590354,18 7.99989772,18 L7.99989772,18 Z" id="Shape" sketch:type="MSShapeGroup"></path>
                <path d="M11.9088062,15.9835971 C12.1710415,17.1902158 11.8227366,18.451223 10.9187545,19.3556835 L8.69604583,21.5795683 L8.30143451,21.9743885 C7.58469148,22.6915108 6.65654953,23.0863309 5.68763778,23.0863309 C4.71872603,23.0863309 3.79058408,22.6915108 3.07384106,21.9748921 C2.35760136,21.2582734 1.96299003,20.3291367 1.96299003,19.3597122 C1.96299003,18.3902878 2.35760136,17.4611511 3.07384106,16.745036 L5.6911611,14.1263309 C6.40790412,13.4092086 7.33604608,13.0143885 8.30495782,13.0143885 C8.58329974,13.0143885 8.84805173,13.0526619 9.09116049,13.1060432 L10.6731291,11.5232374 C9.85672661,11.1823022 9.06096065,11 8.30495782,11 C6.77483226,11 5.34386286,11.588705 4.27478829,12.6583453 L1.65746825,15.2770504 C0.588897009,16.3461871 0,17.7784173 0,19.3093525 C0,20.8402878 0.588393678,22.272518 1.65746825,23.3416547 C2.72654282,24.4107914 4.15751222,25 5.68763778,25 C7.21776334,25 8.64923607,24.4107914 9.71780731,23.3416547 L12.3351274,20.7229496 C14.0006489,19.0565468 14.4586799,16.5023022 13.5179547,14.3741007 L11.9088062,15.9835971 L11.9088062,15.9835971 Z" id="Shape" sketch:type="MSShapeGroup"></path>
                <path d="M23.3424914,1.65834532 C22.2738941,0.589208633 20.8423865,0 19.3122237,0 C17.7820609,0 16.3505533,0.588705036 15.281956,1.65834532 L12.6645723,4.27654676 C10.9995135,5.94294964 10.5414713,8.49719424 11.4817161,10.6258993 L13.0909038,9.01640288 C12.8286621,7.80978417 13.1769755,6.54877698 14.0809796,5.64381295 L15.2713858,4.45280576 L16.6983633,3.02510791 C17.4146205,2.30848921 18.342785,1.91366906 19.3122237,1.91366906 C20.2816624,1.91366906 21.2103303,2.30848921 21.9260841,3.02510791 C22.6423412,3.74223022 23.0369622,4.67086331 23.0369622,5.64028777 C23.0369622,6.60971223 22.6423412,7.53884892 21.9260841,8.25546763 L19.3087003,10.8741727 C18.5924432,11.5907914 17.6642786,11.9856115 16.6948399,11.9856115 C16.4164912,11.9856115 16.1517328,11.9468345 15.9081148,11.8939568 L14.3180541,13.4853237 C15.052935,13.8161871 15.8638206,14 16.6948399,14 C18.2250028,14 19.6565104,13.4107914 20.7251076,12.3416547 L23.3424914,9.72294964 C24.4110887,8.65330935 25,7.22158273 25,5.69064748 C25,4.15971223 24.411592,2.72798561 23.3424914,1.65834532 L23.3424914,1.65834532 Z" id="Shape" sketch:type="MSShapeGroup"></path>
            </g>
        </g>
    </g>
</svg>