<?xml version="1.0" encoding="UTF-8" standalone="no"?>
<svg width="40px" height="40px" viewBox="0 0 40 40" version="1.1" xmlns="http://www.w3.org/2000/svg" xmlns:xlink="http://www.w3.org/1999/xlink" xmlns:sketch="http://www.bohemiancoding.com/sketch/ns">
    <!-- Generator: Sketch 3.4 (15575) - http://www.bohemiancoding.com/sketch -->
    <title>delete_link</title>
    <desc>Created with Sketch.</desc>
    <defs></defs>
    <g id="Page-1" stroke="none" stroke-width="1" fill="none" fill-rule="evenodd" sketch:type="MSPage">
        <g id="delete_link" sketch:type="MSArtboardGroup">
            <path d="M15.95,24.9 L24.95,15.9" id="Shape" stroke="#373737" sketch:type="MSShapeGroup"></path>
            <path d="M20.05,22.9 C20.75,24.45 20.45,26.3 19.2,27.55 L16.1,30.65 C15.3,31.45 14.25,31.9 13.15,31.9 C12.05,31.9 11,31.45 10.2,30.65 C9.4,29.85 8.95,28.8 8.95,27.7 C8.95,26.6 9.4,25.55 10.2,24.75 L13.3,21.65 C14.1,20.85 15.15,20.4 16.25,20.4 C16.85,20.4 17.45,20.55 17.95,20.75 L18.7,20 C17.95,19.65 17.1,19.4 16.25,19.4 C14.85,19.4 13.55,19.95 12.6,20.9 L9.5,24 C8.5,25 8,26.3 8,27.65 C8,29.05 8.55,30.35 9.5,31.3 C10.5,32.3 11.8,32.8 13.15,32.8 L13.15,32.8 C14.55,32.8 15.85,32.25 16.8,31.3 C17.05,31.05 19.7,28.4 19.9,28.2 C21.55,26.55 21.85,24.05 20.8,22.1 L20.05,22.9 L20.05,22.9 Z" id="Shape" fill="#373737" sketch:type="MSShapeGroup"></path>
            <path d="M20.85,17.9 C20.15,16.35 20.45,14.5 21.7,13.25 C21.9,13.05 24.55,10.4 24.8,10.15 C25.6,9.35 26.65,8.9 27.75,8.9 C28.85,8.9 29.9,9.35 30.7,10.15 C31.5,10.95 31.95,12 31.95,13.1 C31.95,14.2 31.5,15.25 30.7,16.05 L27.6,19.15 C26.8,19.95 25.75,20.4 24.65,20.4 C24.05,20.4 23.45,20.25 22.95,20.05 L22.2,20.8 C22.95,21.2 23.8,21.4 24.65,21.4 C26.05,21.4 27.35,20.85 28.3,19.9 L31.4,16.8 C32.4,15.8 32.9,14.5 32.9,13.15 C32.9,11.75 32.35,10.45 31.4,9.5 C30.4,8.5 29.1,8 27.75,8 L27.75,8 C26.35,8 25.05,8.55 24.1,9.5 L21,12.6 C19.35,14.25 19.05,16.75 20.1,18.7 L20.85,17.9 L20.85,17.9 Z" id="Shape" fill="#373737" sketch:type="MSShapeGroup"></path>
            <circle id="Oval" stroke="#373737" sketch:type="MSShapeGroup" cx="27.95" cy="27.9" r="4.5"></circle>
            <path d="M29.7,29.65 L26.2,26.15" id="Shape" stroke="#373737" sketch:type="MSShapeGroup"></path>
            <path d="M26.2,29.65 L29.7,26.15" id="Shape" stroke="#373737" sketch:type="MSShapeGroup"></path>
        </g>
    </g>
</svg>