<?xml version="1.0" encoding="UTF-8" standalone="no"?>
<svg width="40px" height="40px" viewBox="0 0 40 40" version="1.1" xmlns="http://www.w3.org/2000/svg" xmlns:xlink="http://www.w3.org/1999/xlink" xmlns:sketch="http://www.bohemiancoding.com/sketch/ns">
    <!-- Generator: Sketch 3.4.2 (15855) - http://www.bohemiancoding.com/sketch -->
    <title>download_activ</title>
    <desc>Created with Sketch.</desc>
    <defs></defs>
    <g id="Page-1" stroke="none" stroke-width="1" fill="none" fill-rule="evenodd" sketch:type="MSPage">
        <g id="download_activ" sketch:type="MSArtboardGroup" fill="#373737">
            <g id="software_installer_filled" sketch:type="MSLayerGroup" transform="translate(8.000000, 8.000000)">
                <g id="Слой_1" sketch:type="MSShapeGroup">
                    <path d="M21.8451087,3.59672727 C21.7630435,3.10090909 21.326087,2.72727273 20.8298913,2.72727273 L13.0434783,2.72727273 L13.0434783,11.7741818 L17.0070652,7.79618182 C17.2195652,7.58290909 17.5630435,7.58290909 17.7755435,7.79618182 C17.9880435,8.00945455 17.9880435,8.35418182 17.7755435,8.56745455 L12.8842391,13.4765455 C12.7782609,13.5829091 12.6391304,13.6363636 12.5,13.6363636 C12.3608696,13.6363636 12.2217391,13.5829091 12.1157609,13.4765455 L7.22445652,8.56745455 C7.01195652,8.35418182 7.01195652,8.00945455 7.22445652,7.79618182 C7.43695652,7.58290909 7.78043478,7.58290909 7.99293478,7.79618182 L11.9565217,11.7741818 L11.9565217,2.72727273 L4.16956522,2.72727273 C3.67391304,2.72727273 3.23804348,3.10090909 3.16086957,3.56454545 L0.188043478,16.5643636 C0.4625,16.4383636 0.765217391,16.3636364 1.08695652,16.3636364 L23.9130435,16.3636364 C24.2271739,16.3636364 24.523913,16.434 24.7934783,16.5545455 L21.8451087,3.59672727 L21.8451087,3.59672727 Z" id="Shape"></path>
                    <path d="M13.0434783,0.545454545 C13.0434783,0.244363636 12.8,0 12.5,0 C12.2,0 11.9565217,0.244363636 11.9565217,0.545454545 L11.9565217,2.72727273 L13.0434783,2.72727273 L13.0434783,0.545454545 L13.0434783,0.545454545 Z" id="Shape"></path>
                    <path d="M23.9130435,17.4545455 L1.08695652,17.4545455 C0.4875,17.4545455 0,17.9438182 0,18.5454545 L0,22.9090909 C0,23.5107273 0.4875,24 1.08695652,24 L23.9130435,24 C24.5125,24 25,23.5107273 25,22.9090909 L25,18.5454545 C25,17.9438182 24.5125,17.4545455 23.9130435,17.4545455 L23.9130435,17.4545455 Z M20.6521739,21.8181818 C20.0516304,21.8181818 19.5652174,21.3294545 19.5652174,20.7272727 C19.5652174,20.1250909 20.0516304,19.6363636 20.6521739,19.6363636 C21.2527174,19.6363636 21.7391304,20.1250909 21.7391304,20.7272727 C21.7391304,21.3294545 21.2527174,21.8181818 20.6521739,21.8181818 L20.6521739,21.8181818 Z" id="Shape"></path>
                </g>
            </g>
        </g>
    </g>
</svg>