<?xml version="1.0" encoding="UTF-8"?>
<!DOCTYPE svg PUBLIC "-//W3C//DTD SVG 1.1//EN" "http://www.w3.org/Graphics/SVG/1.1/DTD/svg11.dtd">
<!-- Creator: CorelDRAW X5 -->
<svg xmlns="http://www.w3.org/2000/svg" xml:space="preserve" width="0.6in" height="0.6in" shape-rendering="geometricPrecision" text-rendering="geometricPrecision" image-rendering="optimizeQuality" fill-rule="evenodd" clip-rule="evenodd"
viewBox="0 0 0.6 0.6"
 xmlns:xlink="http://www.w3.org/1999/xlink"
 version="1.1"
 xmlns:sketch="http://www.bohemiancoding.com/sketch/ns">
 <g id="Layer_x0020_1">
  <metadata id="CorelCorpID_0Corel-Layer"/>
  <g id="error.svg">
   <g id="Page-1" sketch:type="MSPage">
    <g id="error" sketch:type="MSArtboardGroup">
     <path id="Shape" fill="none" stroke="#FEFEFE" stroke-width="0.0208346" d="M0.259323 0.551886c0,0 0.187917,0.0299055 0.223441,-0.163323 0.017185,0 0.0389567,-0.0379567 0.0389567,-0.0747598 0,-0.0138031 -0.00916535,-0.0230039 -0.017189,-0.0276063" sketch:type="MSShapeGroup"/>
     <path id="Shape_0" fill="none" stroke="#FEFEFE" stroke-width="0.0208346" d="M0.16422 0.265496c0,-0.0690118 0.0572913,-0.118469 0.061874,-0.138024 0.0252087,0.147224 0.240626,-0.0115 0.240626,0.201283 0,-0.0368071 0.0401024,-0.0437087 0.0401024,-0.0437087 0,0 0.00802362,-0.0575079 0.00802362,-0.0874134 0,-0.0621102 -0.0527087,-0.173677 -0.198228,-0.173677 -0.142087,0 -0.205106,0.0954646 -0.205106,0.181728 0,0 -0.00114567,0.0161024 0.00458268,0.0494567" sketch:type="MSShapeGroup"/>
     <path id="Shape_1" fill="none" stroke="#FEFEFE" stroke-width="0.0208346" d="M0.378492 0.320705c0.00801969,-0.00230315 0.013748,-0.0138031 0.0114567,-0.0230039 -0.00343701,-0.0138031 -0.0183307,-0.0149528 -0.0275,-0.0149528 -0.00916535,0.00114961 -0.123748,0.0207008 -0.182185,0.0655591 -0.00344094,-0.0195512 -0.00573228,-0.0529094 -0.0126063,-0.0736102 -0.00916535,-0.0276063 -0.0332283,-0.0425591 -0.051563,-0.0195551 0.00687402,0.0184055 0.010315,0.0839646 0.010315,0.12537 0,0.0644094 -0.0366693,0.121917 -0.048126,0.156425" sketch:type="MSShapeGroup"/>
     <path id="Shape_2" fill="none" stroke="#FEFEFE" stroke-width="0.0208346" d="M0.410575 0.360961c0.0114567,-0.00345276 0.017189,-0.0172559 0.013748,-0.0287559 -0.00343701,-0.0103504 -0.0160394,-0.0126535 -0.0240591,-0.0126535 -0.00916929,0 -0.0286457,-0.00459843 -0.126043,0.0333583" sketch:type="MSShapeGroup"/>
     <path id="Shape_3" fill="none" stroke="#FEFEFE" stroke-width="0.0208346" d="M0.397972 0.412717c0.0229134,-0.00805118 0.0275,-0.0241535 0.0263504,-0.0322047 -0.00229134,-0.0115 -0.0126024,-0.0184016 -0.0229134,-0.017252 -0.041252,0.00575197 -0.107709,0.0356535 -0.107709,0.0356535" sketch:type="MSShapeGroup"/>
     <path id="Shape_4" fill="none" stroke="#FEFEFE" stroke-width="0.0208346" d="M0.210055 0.576043c0,0 0.0332283,-0.0103543 0.0595827,-0.0322087 0.0126024,-0.0115 0.030937,-0.0322047 0.051563,-0.0471535 0.010311,-0.00690157 0.0870827,-0.0448583 0.0870827,-0.0448583 0.0126024,-0.00460236 0.0160394,-0.0184016 0.0114567,-0.0264528 -0.00343701,-0.00690157 -0.0148937,-0.0161024 -0.0229173,-0.0126535 0,0 -0.034374,0.0103504 -0.0744764,0.0299055" sketch:type="MSShapeGroup"/>
    </g>
   </g>
  </g>
 </g>
</svg>
