<?xml version="1.0" encoding="UTF-8"?>
<!DOCTYPE svg PUBLIC "-//W3C//DTD SVG 1.1//EN" "http://www.w3.org/Graphics/SVG/1.1/DTD/svg11.dtd">
<!-- Creator: CorelDRAW X5 -->
<svg xmlns="http://www.w3.org/2000/svg" xml:space="preserve" width="0.653331in" height="0.68in" shape-rendering="geometricPrecision" text-rendering="geometricPrecision" image-rendering="optimizeQuality" fill-rule="evenodd" clip-rule="evenodd"
viewBox="0 0 0.653331 0.68"
 xmlns:xlink="http://www.w3.org/1999/xlink"
 version="1.1"
 xmlns:sketch="http://www.bohemiancoding.com/sketch/ns">
 <g id="Layer_x0020_1">
  <metadata id="CorelCorpID_0Corel-Layer"/>
  <polygon id="Shape" fill="none" stroke="#FEFEFE" stroke-width="0.0208346" points="0.154138,0.616043 0.378421,0.227283 0.602709,0.616043 " sketch:type="MSShapeGroup"/>
  <path id="Shape_0" fill="#FEFEFE" d="M0.389925 0.52748c0.00229921,0 0.00344882,0.00114961 0.00344882,0.00344882l0 0.0241535c0,0.00229921 -0.00114961,0.00344882 -0.00344882,0.00344882l-0.0230039 0c-0.00229921,0 -0.00344882,-0.00114961 -0.00344882,-0.00344882l0 -0.0241535c0,-0.00229921 0.00114961,-0.00344882 0.00344882,-0.00344882l0.0230039 0 0 0zm-0.00114961 -0.164476c0.00229921,0 0.00344882,0.00114961 0.00344882,0.00344882l0 0.131122c0,0.00229921 -0.00114961,0.00344882 -0.00344882,0.00344882l-0.0218543 0c-0.00229921,0 -0.00344882,-0.00114961 -0.00344882,-0.00344882l0 -0.131122c0,-0.00229921 0.00114961,-0.00344882 0.00344882,-0.00344882l0.0218543 0 0 0z" sketch:type="MSShapeGroup"/>
  <path id="Shape_1" fill="none" stroke="#FEFEFE" stroke-width="0.0208346" d="M0.236953 0.383709c-0.00805118,0.00114961 -0.017252,0.00229921 -0.0253031,0.00229921 -0.0885669,0 -0.161028,-0.0724606 -0.161028,-0.161024 0,-0.088563 0.0724606,-0.161028 0.161028,-0.161028 0.0724606,0 0.134567,0.048311 0.154122,0.11502" sketch:type="MSShapeGroup"/>
  <circle id="Oval" fill="#FEFEFE" stroke="#FEFEFE" stroke-width="0.00694488" cx="0.21165" cy="0.224984" r="0.0207008" sketch:type="MSShapeGroup"/>
  <polyline id="Shape_2" fill="none" stroke="#FEFEFE" stroke-width="0.0208346" points="0.157591,0.279039 0.21165,0.224984 0.21165,0.121469 " sketch:type="MSShapeGroup"/>
 </g>
 <g id="Layer_x0020_1_3">
  <metadata id="CorelCorpID_1Corel-Layer"/>
 </g>
</svg>
