<?xml version="1.0" encoding="UTF-8" standalone="no"?>
<svg width="40px" height="40px" viewBox="0 0 40 40" version="1.1" xmlns="http://www.w3.org/2000/svg" xmlns:xlink="http://www.w3.org/1999/xlink" xmlns:sketch="http://www.bohemiancoding.com/sketch/ns">
    <!-- Generator: Sketch 3.4 (15575) - http://www.bohemiancoding.com/sketch -->
    <title>link</title>
    <desc>Created with Sketch.</desc>
    <defs></defs>
    <g id="Page-1" stroke="none" stroke-width="1" fill="none" fill-rule="evenodd" sketch:type="MSPage">
        <g id="link" sketch:type="MSArtboardGroup">
            <g id="Shape-+-Shape-+-Shape" sketch:type="MSLayerGroup" transform="translate(8.000000, 8.000000)">
                <path d="M8,17 L17,8" id="Shape" stroke="#000000" sketch:type="MSShapeGroup"></path>
                <path d="M12.09,14.9775 C12.774,16.5155 12.4905,18.3825 11.2315,19.6415 C11.052,19.821 8.4035,22.4705 8.142,22.7315 C7.3515,23.522 6.3005,23.9575 5.1825,23.9575 C4.065,23.957 3.014,23.522 2.2235,22.7315 C1.4325,21.9405 0.997,20.8895 0.997,19.7715 C0.997,18.6535 1.4325,17.6025 2.223,16.812 L5.313,13.722 C6.1035,12.9315 7.1545,12.4965 8.272,12.4965 C8.8705,12.4965 9.448,12.6245 9.978,12.862 L10.725,12.115 C9.9795,11.7135 9.1425,11.5 8.272,11.5 C6.888,11.5 5.5865,12.039 4.608,13.0175 L1.518,16.1075 C0.539,17.086 0,18.3875 0,19.7715 C0,21.1555 0.5395,22.457 1.5185,23.4365 C2.497,24.415 3.7985,24.954 5.182,24.954 L5.1825,24.954 C6.5665,24.954 7.868,24.415 8.8455,23.4365 C9.1065,23.1765 11.757,20.5255 11.936,20.3455 C13.589,18.693 13.8875,16.1925 12.8355,14.231 L12.09,14.9775 L12.09,14.9775 Z" id="Shape" fill="#373737" sketch:type="MSShapeGroup"></path>
                <path d="M12.8599857,9.9765 C12.1759857,8.4385 12.4594857,6.5715 13.7189857,5.3125 C13.8979857,5.133 16.5464857,2.483 16.8079857,2.223 C17.5989857,1.432 18.6499857,0.9965 19.7679857,0.9965 C20.8854857,0.9965 21.9364857,1.432 22.7269857,2.2225 C23.5179857,3.0135 23.9534857,4.065 23.9534857,5.183 C23.9534857,6.301 23.5179857,7.3515 22.7274857,8.142 L19.6374857,11.232 C18.8469857,12.0225 17.7959857,12.4575 16.6779857,12.4575 C16.0799857,12.4575 15.5019857,12.3295 14.9724857,12.092 L14.2254857,12.839 C14.9709857,13.2405 15.8079857,13.454 16.6779857,13.454 C18.0624857,13.454 19.3634857,12.915 20.3419857,11.9365 L23.4319857,8.8465 C24.4109857,7.868 24.9499857,6.5665 24.9499857,5.1825 C24.9494857,3.798 24.4104857,2.4965 23.4314857,1.5175 C22.4529857,0.539 21.1514857,0 19.7679857,0 L19.7674857,0 C18.3829857,0 17.0824857,0.539 16.1044857,1.517 C15.8434857,1.777 13.1929857,4.4285 13.0139857,4.608 C11.3609857,6.2605 11.0624857,8.761 12.1139857,10.7225 L12.8599857,9.9765 L12.8599857,9.9765 Z" id="Shape" fill="#373737" sketch:type="MSShapeGroup"></path>
            </g>
        </g>
    </g>
</svg>