<?xml version="1.0" encoding="UTF-8" standalone="no"?>
<svg width="40px" height="40px" viewBox="0 0 40 40" version="1.1" xmlns="http://www.w3.org/2000/svg" xmlns:xlink="http://www.w3.org/1999/xlink" xmlns:sketch="http://www.bohemiancoding.com/sketch/ns">
    <!-- Generator: Sketch 3.4 (15575) - http://www.bohemiancoding.com/sketch -->
    <title>link_activ</title>
    <desc>Created with Sketch.</desc>
    <defs></defs>
    <g id="Page-1" stroke="none" stroke-width="1" fill="none" fill-rule="evenodd" sketch:type="MSPage">
        <g id="link_activ" sketch:type="MSArtboardGroup">
            <g id="Shape-+-Shape-+-Shape" sketch:type="MSLayerGroup" transform="translate(8.000000, 8.000000)">
                <path d="M8.5,16.5 L16.5,8.5" id="Shape" stroke="#000000" stroke-width="2" sketch:type="MSShapeGroup"></path>
                <path d="M11.4215,16.345 C11.521,17.2865 11.2095,18.2495 10.5225,18.9365 C10.344,19.115 7.6995,21.7615 7.435,22.0245 C6.833,22.626 6.0325,22.958 5.182,22.958 C4.3315,22.958 3.532,22.6265 2.93,22.0245 C2.328,21.423 1.9965,20.622 1.9965,19.7715 C1.9965,18.921 2.328,18.121 2.9295,17.5195 L6.0195,14.4295 C6.621,13.828 7.421,13.497 8.272,13.497 C8.3895,13.497 8.5045,13.5105 8.62,13.524 L10.2485,11.8955 C9.629,11.6395 8.962,11.5 8.272,11.5 C6.887,11.5 5.5865,12.039 4.608,13.0175 L1.518,16.108 C0.5395,17.086 0,18.3875 0,19.7715 C0.001,21.1565 0.54,22.458 1.519,23.4365 C2.4975,24.415 3.7985,24.9545 5.1825,24.9545 L5.183,24.9545 C6.5675,24.9545 7.868,24.4155 8.8455,23.4375 C9.1065,23.177 11.7575,20.526 11.9365,20.3465 C13.458,18.825 13.8285,16.586 13.058,14.709 L11.4215,16.345 L11.4215,16.345 Z" id="Shape" fill="#373737" sketch:type="MSShapeGroup"></path>
                <path d="M23.4291936,1.5175 C22.4506936,0.539 21.1491936,0 19.7656936,0 L19.7651936,0 C18.3806936,0 17.0801936,0.539 16.1026936,1.517 C15.8416936,1.777 13.1906936,4.4285 13.0116936,4.608 C11.4886936,6.1305 11.1186936,8.372 11.8916936,10.25 L13.5266936,8.615 C13.4256936,7.6715 13.7366936,6.7065 14.4251936,6.0185 C14.6036936,5.8395 17.2481936,3.193 17.5126936,2.9305 C18.1146936,2.3285 18.9151936,1.997 19.7656936,1.997 C20.6161936,1.997 21.4156936,2.3285 22.0176936,2.9305 C22.6196936,3.5325 22.9511936,4.3325 22.9511936,5.1835 C22.9511936,6.034 22.6196936,6.8335 22.0181936,7.4355 L18.9281936,10.5255 C18.3266936,11.127 17.5266936,11.458 16.6756936,11.458 C16.5606936,11.458 16.4466936,11.444 16.3326936,11.4315 L14.7031936,13.061 C15.3211936,13.316 15.9866936,13.4545 16.6751936,13.4545 C18.0601936,13.4545 19.3606936,12.9155 20.3391936,11.937 L23.4291936,8.847 C24.4081936,7.8685 24.9471936,6.567 24.9471936,5.183 C24.9471936,3.798 24.4081936,2.4965 23.4291936,1.5175 L23.4291936,1.5175 Z" id="Shape" fill="#373737" sketch:type="MSShapeGroup"></path>
            </g>
        </g>
    </g>
</svg>