<?xml version="1.0" encoding="UTF-8"?>
<!DOCTYPE svg PUBLIC "-//W3C//DTD SVG 1.1//EN" "http://www.w3.org/Graphics/SVG/1.1/DTD/svg11.dtd">
<!-- Creator: CorelDRAW X5 -->
<svg xmlns="http://www.w3.org/2000/svg" xml:space="preserve" width="0.566661in" height="0.566661in" shape-rendering="geometricPrecision" text-rendering="geometricPrecision" image-rendering="optimizeQuality" fill-rule="evenodd" clip-rule="evenodd"
viewBox="0 0 0.566661 0.566661"
 xmlns:xlink="http://www.w3.org/1999/xlink">
 <g id="Layer_x0020_1">
  <metadata id="CorelCorpID_0Corel-Layer"/>
  <path id="_313969736" fill="none" fill-rule="nonzero" stroke="#FEFEFE" stroke-width="0.0138898" d="M0.479335 0.462142c0.098752,-0.108244 0.0910512,-0.276059 -0.0171929,-0.374811 -0.108248,-0.098752 -0.276063,-0.0910551 -0.374811,0.0171929 -0.098752,0.108248 -0.0910551,0.276063 0.0171929,0.374811 0.108244,0.098752 0.276059,0.0910551 0.374811,-0.0171929z"/>
  <g id="_255824728">
   <path id="_259750576" fill="#FEFEFE" fill-rule="nonzero" d="M0.135307 0.295146l0 -0.0236339c0.183917,0 0.0659488,0 0.163579,0l0.132469 0 0 0.0236339 -0.132469 0c-0.115614,0 0.0401339,0 -0.163579,0z"/>
   <path id="_259750576_0" fill="#FEFEFE" fill-rule="nonzero" d="M0.271512 0.135303l0.0236339 0c0,0.183917 0,0.0659488 0,0.163579l0 0.132469 -0.0236339 0 0 -0.132469c0,-0.115614 0,0.0401339 0,-0.163579z"/>
  </g>
 </g>
</svg>
